# xmcd
#
# Track frame offsets: 
#        150
#        12120
#        24745
#        35402
#        46767
#        59185
#        70885
#        82675
#        92392
#        105192
#        115840
#        125692
#        138955
#        148422
#        157337
#        167910
#        178230
#        187482
#        199105
#        211115
#
# Disc length: 3017 seconds
#
# Revision: 4
# Processed by: cddbd v1.5.2PL0 Copyright (c) Steve Scherf et al.
# Submitted via: ExactAudioCopyFreeDBPlugin 1.0
#
DISCID=220bc714
DTITLE=Jim Reeves - The Essential Jim Reeves [Disc 1]
DYEAR=2006
DGENRE=Country
TTITLE0=Mexican Joe (With The Circle O Ranch Boys)
TTITLE1=Bimbo
TTITLE2=Beatin' On The Ding Dong
TTITLE3=Penny Candy
TTITLE4=Drinking Tequila
TTITLE5=Yonder Comes A Sucker
TTITLE6=According To My Heart
TTITLE7=Waiting For A Train
TTITLE8=Four Walls
TTITLE9=Two Shadows On Your Window
TTITLE10=Blue Boy
TTITLE11=It Is No Secret (What God Can Do)
TTITLE12=Billy Bayou
TTITLE13=Home
TTITLE14=He'll Have To Go
TTITLE15=I'm Gettin' Better
TTITLE16=I Know One
TTITLE17=I Missed Me
TTITLE18=Am I Losing You?
TTITLE19=The Blizzard
EXTD=
EXTT0=
EXTT1=
EXTT2=
EXTT3=
EXTT4=
EXTT5=
EXTT6=
EXTT7=
EXTT8=
EXTT9=
EXTT10=
EXTT11=
EXTT12=
EXTT13=
EXTT14=
EXTT15=
EXTT16=
EXTT17=
EXTT18=
EXTT19=
PLAYORDER=
